{
  "accessors": [
    {
      "bufferView": 2,
      "componentType": 5126,
      "count": 14740,
      "max": [
        205.8540496826172,
        47.01508331298828,
        110.40796661376953
      ],
      "min": [
        -205.85401916503906,
        -44.83052062988281,
        -0.12892499566078186
      ],
      "type": "VEC3"
    },
    {
      "bufferView": 2,
      "byteOffset": 176880,
      "componentType": 5126,
      "count": 14740,
      "max": [
        1.0,
        0.9999348521232605,
        0.9999009966850281
      ],
      "min": [
        -1.0,
        -0.9996169805526733,
        -1.0
      ],
      "type": "VEC3"
    },
    {
      "bufferView": 3,
      "componentType": 5126,
      "count": 14740,
      "max": [
        1.0,
        1.0,
        0.9999347925186157,
        1.0
      ],
      "min": [
        -1.0,
        -0.9999580383300781,
        -0.9996928572654724,
        -1.0
      ],
      "type": "VEC4"
    },
    {
      "bufferView": 1,
      "componentType": 5126,
      "count": 14740,
      "max": [
        1.0,
        0.9809200167655945
      ],
      "min": [
        0.0,
        0.0
      ],
      "type": "VEC2"
    },
    {
      "bufferView": 0,
      "componentType": 5125,
      "count": 65574,
      "type": "SCALAR"
    },
    {
      "bufferView": 2,
      "byteOffset": 353760,
      "componentType": 5126,
      "count": 3750,
      "max": [
        206.73281860351563,
        44.92007827758789,
        109.05679321289063
      ],
      "min": [
        -206.73281860351563,
        -46.28352355957031,
        0.4952090084552765
      ],
      "type": "VEC3"
    },
    {
      "bufferView": 2,
      "byteOffset": 398760,
      "componentType": 5126,
      "count": 3750,
      "max": [
        1.0,
        1.0,
        1.0
      ],
      "min": [
        -1.0,
        -0.9997918605804443,
        -0.9999697804450989
      ],
      "type": "VEC3"
    },
    {
      "bufferView": 3,
      "byteOffset": 235840,
      "componentType": 5126,
      "count": 3750,
      "max": [
        1.0,
        0.9999621510505676,
        0.9997503757476807,
        1.0
      ],
      "min": [
        -1.0,
        -0.9999997615814209,
        -1.0,
        -1.0
      ],
      "type": "VEC4"
    },
    {
      "bufferView": 1,
      "byteOffset": 117920,
      "componentType": 5126,
      "count": 3750,
      "max": [
        0.9979990124702454,
        0.9446750283241272
      ],
      "min": [
        0.0,
        0.0
      ],
      "type": "VEC2"
    },
    {
      "bufferView": 0,
      "byteOffset": 262296,
      "componentType": 5125,
      "count": 14196,
      "type": "SCALAR"
    }
  ],
  "asset": {
    "extras": {
      "author": "e-restrepo1114 (https://sketchfab.com/EmanuelRestrepoVelez)",
      "license": "CC-BY-4.0 (http://creativecommons.org/licenses/by/4.0/)",
      "source": "https://sketchfab.com/3d-models/silla-publica-de-cuero-4ae7c7c3029047a68935347a514dc36b",
      "title": "silla publica de cuero"
    },
    "generator": "Sketchfab-13.17.0",
    "version": "2.0"
  },
  "bufferViews": [
    {
      "buffer": 0,
      "byteLength": 319080,
      "name": "floatBufferViews",
      "target": 34963
    },
    {
      "buffer": 0,
      "byteLength": 147920,
      "byteOffset": 319080,
      "byteStride": 8,
      "name": "floatBufferViews",
      "target": 34962
    },
    {
      "buffer": 0,
      "byteLength": 443760,
      "byteOffset": 467000,
      "byteStride": 12,
      "name": "floatBufferViews",
      "target": 34962
    },
    {
      "buffer": 0,
      "byteLength": 295840,
      "byteOffset": 910760,
      "byteStride": 16,
      "name": "floatBufferViews",
      "target": 34962
    }
  ],
  "buffers": [
    {
      "byteLength": 1206600,
      "uri": "scene.bin"
    }
  ],
  "images": [
    {
      "uri": "textures/cuero_baseColor.jpeg"
    },
    {
      "uri": "textures/cuero_metallicRoughness.png"
    },
    {
      "uri": "textures/cuero_normal.png"
    },
    {
      "uri": "textures/metal_baseColor.jpeg"
    },
    {
      "uri": "textures/metal_metallicRoughness.png"
    },
    {
      "uri": "textures/metal_normal.png"
    }
  ],
  "materials": [
    {
      "doubleSided": true,
      "name": "cuero",
      "normalTexture": {
        "index": 2
      },
      "occlusionTexture": {
        "index": 1
      },
      "pbrMetallicRoughness": {
        "baseColorTexture": {
          "index": 0
        },
        "metallicRoughnessTexture": {
          "index": 1
        }
      }
    },
    {
      "doubleSided": true,
      "name": "metal",
      "normalTexture": {
        "index": 5
      },
      "occlusionTexture": {
        "index": 4
      },
      "pbrMetallicRoughness": {
        "baseColorTexture": {
          "index": 3
        },
        "metallicRoughnessTexture": {
          "index": 4
        }
      }
    }
  ],
  "meshes": [
    {
      "name": "defaultMaterial",
      "primitives": [
        {
          "attributes": {
            "NORMAL": 1,
            "POSITION": 0,
            "TANGENT": 2,
            "TEXCOORD_0": 3
          },
          "indices": 4,
          "material": 0,
          "mode": 4
        }
      ]
    },
    {
      "name": "defaultMaterial",
      "primitives": [
        {
          "attributes": {
            "NORMAL": 6,
            "POSITION": 5,
            "TANGENT": 7,
            "TEXCOORD_0": 8
          },
          "indices": 9,
          "material": 1,
          "mode": 4
        }
      ]
    }
  ],
  "nodes": [
    {
      "children": [
        1
      ],
      "matrix": [
        1.0,
        0.0,
        0.0,
        0.0,
        0.0,
        2.220446049250313e-16,
        -1.0,
        0.0,
        0.0,
        1.0,
        2.220446049250313e-16,
        0.0,
        0.0,
        0.0,
        0.0,
        1.0
      ],
      "name": "Sketchfab_model"
    },
    {
      "children": [
        2
      ],
      "matrix": [
        1.0,
        0.0,
        0.0,
        0.0,
        0.0,
        -4.371139006309477e-08,
        0.999999999999999,
        0.0,
        0.0,
        -0.999999999999999,
        -4.371139006309477e-08,
        0.0,
        0.0,
        0.0,
        0.0,
        1.0
      ],
      "name": "Collada visual scene group"
    },
    {
      "children": [
        3,
        4
      ],
      "matrix": [
        1.000001,
        0.0,
        0.0,
        0.0,
        0.0,
        0.0,
        -1.000001,
        0.0,
        0.0,
        1.000001,
        0.0,
        0.0,
        0.0,
        0.0,
        0.0,
        1.0
      ],
      "name": "Cube.003"
    },
    {
      "mesh": 0,
      "name": "defaultMaterial"
    },
    {
      "mesh": 1,
      "name": "defaultMaterial"
    }
  ],
  "samplers": [
    {
      "magFilter": 9729,
      "minFilter": 9987,
      "wrapS": 10497,
      "wrapT": 10497
    }
  ],
  "scene": 0,
  "scenes": [
    {
      "name": "Sketchfab_Scene",
      "nodes": [
        0
      ]
    }
  ],
  "textures": [
    {
      "sampler": 0,
      "source": 0
    },
    {
      "sampler": 0,
      "source": 1
    },
    {
      "sampler": 0,
      "source": 2
    },
    {
      "sampler": 0,
      "source": 3
    },
    {
      "sampler": 0,
      "source": 4
    },
    {
      "sampler": 0,
      "source": 5
    }
  ]
}
